<svg width="27" height="31" viewBox="0 0 27 31" fill="none" xmlns="http://www.w3.org/2000/svg">
<path d="M10.4533 0.538571C10.2805 0.536252 10.109 0.567905 9.94871 0.631694C9.7884 0.695482 9.64251 0.790134 9.5195 0.910152C9.39649 1.03017 9.29881 1.17316 9.23214 1.33083C9.16547 1.48849 9.13114 1.65768 9.13114 1.82858H1.32292C1.15008 1.82616 0.978476 1.85774 0.818083 1.92149C0.657691 1.98523 0.511707 2.07987 0.388617 2.1999C0.265526 2.31992 0.167784 2.46295 0.10107 2.62066C0.0343554 2.77838 0 2.94763 0 3.11859C0 3.28955 0.0343554 3.4588 0.10107 3.61651C0.167784 3.77423 0.265526 3.91725 0.388617 4.03728C0.511707 4.15731 0.657691 4.25195 0.818083 4.31569C0.978476 4.37943 1.15008 4.41102 1.32292 4.4086H24.8011C24.9739 4.41102 25.1455 4.37943 25.3059 4.31569C25.4663 4.25195 25.6123 4.15731 25.7354 4.03728C25.8585 3.91725 25.9562 3.77423 26.0229 3.61651C26.0897 3.4588 26.124 3.28955 26.124 3.11859C26.124 2.94763 26.0897 2.77838 26.0229 2.62066C25.9562 2.46295 25.8585 2.31992 25.7354 2.1999C25.6123 2.07987 25.4663 1.98523 25.3059 1.92149C25.1455 1.85774 24.9739 1.82616 24.8011 1.82858H16.9929C16.9929 1.65768 16.9585 1.48849 16.8919 1.33083C16.8252 1.17316 16.7275 1.03017 16.6045 0.910152C16.4815 0.790134 16.3356 0.695482 16.1753 0.631694C16.015 0.567905 15.8435 0.536252 15.6707 0.538571H10.4533ZM1.32292 6.98862V27.6288C1.32292 29.0542 2.49031 30.2088 3.93161 30.2088H22.1924C23.6337 30.2088 24.8011 29.0542 24.8011 27.6288V6.98862H1.32292Z" fill="#FF5151"/>
</svg>
