<svg width="28" height="27" viewBox="0 0 28 27" fill="none" xmlns="http://www.w3.org/2000/svg">
<path fill-rule="evenodd" clip-rule="evenodd" d="M2.4375 5.95605C2.4375 3.73705 4.25634 1.9382 6.5 1.9382H14C14.5178 1.9382 14.9375 1.52307 14.9375 1.011C14.9375 0.498926 14.5178 0.0838013 14 0.0838013H6.5C3.22081 0.0838013 0.5625 2.7129 0.5625 5.95605V20.7912C0.5625 24.0344 3.22081 26.6635 6.5 26.6635H21.5C24.7792 26.6635 27.4375 24.0344 27.4375 20.7912V13.3736C27.4375 12.8616 27.0178 12.4464 26.5 12.4464C25.9822 12.4464 25.5625 12.8616 25.5625 13.3736V20.7912C25.5625 23.0102 23.7436 24.8091 21.5 24.8091H6.5C4.25634 24.8091 2.4375 23.0102 2.4375 20.7912V5.95605ZM19.5238 1.84805C20.6523 0.731987 22.4819 0.731987 23.6104 1.84805L25.6536 3.86888C26.7821 4.98496 26.7821 6.79446 25.6536 7.91054L23.842 9.70228C23.6998 9.63263 23.5501 9.55731 23.395 9.47652C22.3508 8.9328 21.1115 8.16967 20.1866 7.25498C19.2619 6.34031 18.4903 5.11471 17.9405 4.08192C17.8588 3.92845 17.7826 3.78045 17.7121 3.63978L19.5238 1.84805ZM18.8609 8.56624C19.9552 9.64861 21.3471 10.5005 22.4494 11.0796L15.325 18.1256C14.883 18.5629 14.3094 18.8465 13.6904 18.934L9.39954 19.5402C8.446 19.6749 7.62869 18.8666 7.76491 17.9236L8.37789 13.6799C8.46631 13.0677 8.7531 12.5003 9.1952 12.0632L16.3195 5.01715C16.9051 6.1073 17.7664 7.48385 18.8609 8.56624Z" fill="#47B5FF"/>
</svg>
